<mxfile host="app.diagrams.net" modified="2021-11-29T15:47:19.373Z" agent="5.0 (Windows NT 10.0; Win64; x64) AppleWebKit/537.36 (KHTML, like Gecko) Chrome/96.0.4664.45 Safari/537.36" etag="pudpKHxmnDfNQ5LiYfbz" version="15.8.6" type="github">
  <diagram id="kar3vyS12sgQTYsgrsxM" name="Page-1">
    <mxGraphModel dx="2738" dy="1679" grid="1" gridSize="10" guides="1" tooltips="1" connect="1" arrows="1" fold="1" page="1" pageScale="1" pageWidth="850" pageHeight="1100" math="0" shadow="0">
      <root>
        <mxCell id="0" />
        <mxCell id="1" parent="0" />
        <mxCell id="u9joneSlGGYFTYJrx8sh-1" value="&lt;b&gt;discount_product_strategies&lt;/b&gt;" style="rounded=0;whiteSpace=wrap;html=1;" parent="1" vertex="1">
          <mxGeometry x="160" y="115" width="200" height="110" as="geometry" />
        </mxCell>
        <mxCell id="u9joneSlGGYFTYJrx8sh-16" style="edgeStyle=orthogonalEdgeStyle;rounded=0;orthogonalLoop=1;jettySize=auto;html=1;exitX=0;exitY=0.5;exitDx=0;exitDy=0;endArrow=ERmandOne;endFill=0;startArrow=ERmandOne;startFill=0;" parent="1" source="u9joneSlGGYFTYJrx8sh-2" target="u9joneSlGGYFTYJrx8sh-1" edge="1">
          <mxGeometry relative="1" as="geometry" />
        </mxCell>
        <mxCell id="u9joneSlGGYFTYJrx8sh-2" value="&lt;b&gt;discount_product_strategy_types&lt;/b&gt;" style="rounded=0;whiteSpace=wrap;html=1;" parent="1" vertex="1">
          <mxGeometry x="550" y="115" width="270" height="110" as="geometry" />
        </mxCell>
        <mxCell id="u9joneSlGGYFTYJrx8sh-6" style="edgeStyle=orthogonalEdgeStyle;rounded=0;orthogonalLoop=1;jettySize=auto;html=1;exitX=1;exitY=1;exitDx=0;exitDy=0;" parent="1" source="u9joneSlGGYFTYJrx8sh-3" target="u9joneSlGGYFTYJrx8sh-2" edge="1">
          <mxGeometry relative="1" as="geometry" />
        </mxCell>
        <mxCell id="u9joneSlGGYFTYJrx8sh-3" value="id" style="ellipse;whiteSpace=wrap;html=1;" parent="1" vertex="1">
          <mxGeometry x="360" y="-35" width="90" height="80" as="geometry" />
        </mxCell>
        <mxCell id="u9joneSlGGYFTYJrx8sh-5" style="edgeStyle=orthogonalEdgeStyle;rounded=0;orthogonalLoop=1;jettySize=auto;html=1;exitX=0.5;exitY=1;exitDx=0;exitDy=0;entryX=0.698;entryY=-0.013;entryDx=0;entryDy=0;entryPerimeter=0;" parent="1" source="u9joneSlGGYFTYJrx8sh-4" target="u9joneSlGGYFTYJrx8sh-2" edge="1">
          <mxGeometry relative="1" as="geometry" />
        </mxCell>
        <mxCell id="u9joneSlGGYFTYJrx8sh-4" value="type" style="ellipse;whiteSpace=wrap;html=1;" parent="1" vertex="1">
          <mxGeometry x="580" y="-25" width="120" height="80" as="geometry" />
        </mxCell>
        <mxCell id="u9joneSlGGYFTYJrx8sh-8" value="&lt;div style=&quot;text-align: left&quot;&gt;&lt;span&gt;* min_max&lt;/span&gt;&lt;/div&gt;&lt;div style=&quot;text-align: left&quot;&gt;&lt;span&gt;* percent&lt;/span&gt;&lt;/div&gt;&lt;div style=&quot;text-align: left&quot;&gt;&lt;span&gt;* price bundling&lt;/span&gt;&lt;/div&gt;&lt;div style=&quot;text-align: left&quot;&gt;&lt;span&gt;* bulk or whole sale&lt;/span&gt;&lt;/div&gt;&lt;div style=&quot;text-align: left&quot;&gt;&lt;span&gt;*&amp;nbsp;&lt;/span&gt;&lt;/div&gt;" style="text;html=1;strokeColor=none;fillColor=none;align=center;verticalAlign=middle;whiteSpace=wrap;rounded=0;" parent="1" vertex="1">
          <mxGeometry x="710" y="-25" width="160" height="30" as="geometry" />
        </mxCell>
        <mxCell id="u9joneSlGGYFTYJrx8sh-9" value="https://www.indeed.com/career-advice/career-development/discounts-types?fbclid=IwAR2rFoqgVlXDuKHUGWeAIgsy3ZtSnaIKkB2PtbmfDB8pZ0HiraLwG9YxjAo" style="text;html=1;strokeColor=none;fillColor=none;align=center;verticalAlign=middle;whiteSpace=wrap;rounded=0;" parent="1" vertex="1">
          <mxGeometry x="930" y="45" width="60" height="30" as="geometry" />
        </mxCell>
        <mxCell id="u9joneSlGGYFTYJrx8sh-13" style="edgeStyle=orthogonalEdgeStyle;rounded=0;orthogonalLoop=1;jettySize=auto;html=1;exitX=0.5;exitY=1;exitDx=0;exitDy=0;entryX=0.438;entryY=-0.005;entryDx=0;entryDy=0;entryPerimeter=0;" parent="1" source="u9joneSlGGYFTYJrx8sh-12" target="u9joneSlGGYFTYJrx8sh-1" edge="1">
          <mxGeometry relative="1" as="geometry" />
        </mxCell>
        <mxCell id="u9joneSlGGYFTYJrx8sh-12" value="type_id" style="ellipse;whiteSpace=wrap;html=1;" parent="1" vertex="1">
          <mxGeometry x="180" y="-45" width="90" height="80" as="geometry" />
        </mxCell>
        <mxCell id="u9joneSlGGYFTYJrx8sh-15" style="edgeStyle=orthogonalEdgeStyle;rounded=0;orthogonalLoop=1;jettySize=auto;html=1;exitX=1;exitY=0.5;exitDx=0;exitDy=0;entryX=0;entryY=0.25;entryDx=0;entryDy=0;" parent="1" source="u9joneSlGGYFTYJrx8sh-14" target="u9joneSlGGYFTYJrx8sh-1" edge="1">
          <mxGeometry relative="1" as="geometry" />
        </mxCell>
        <mxCell id="u9joneSlGGYFTYJrx8sh-14" value="percent" style="ellipse;whiteSpace=wrap;html=1;" parent="1" vertex="1">
          <mxGeometry x="-30" y="-15" width="90" height="80" as="geometry" />
        </mxCell>
        <mxCell id="u9joneSlGGYFTYJrx8sh-17" value="&lt;div style=&quot;text-align: left&quot;&gt;NOTE on implementing types of discount on front end&lt;/div&gt;&lt;div style=&quot;text-align: left&quot;&gt;* each product has a one active discount product strategy type&lt;/div&gt;&lt;div style=&quot;text-align: left&quot;&gt;* each type of discount strategies should have each own function on the front end&lt;/div&gt;&lt;div style=&quot;text-align: left&quot;&gt;* ex&lt;/div&gt;&lt;div style=&quot;text-align: left&quot;&gt;* after axios call, check its type, if type is min_max used the function min_max created on the blade file&lt;/div&gt;&lt;div style=&quot;text-align: left&quot;&gt;and use it to calculate the discount&lt;/div&gt;&lt;div style=&quot;text-align: left&quot;&gt;* so when there is a new added type on the database, you should also add a new custom function on the blade file on front end to calculate its discount&lt;/div&gt;" style="text;html=1;strokeColor=none;fillColor=none;align=center;verticalAlign=middle;whiteSpace=wrap;rounded=0;" parent="1" vertex="1">
          <mxGeometry x="50" y="220" width="600" height="160" as="geometry" />
        </mxCell>
        <mxCell id="8wsj7iN9lhSrUJAxLuZD-3" style="edgeStyle=orthogonalEdgeStyle;rounded=0;orthogonalLoop=1;jettySize=auto;html=1;exitX=0.563;exitY=0.997;exitDx=0;exitDy=0;entryX=0.597;entryY=0.994;entryDx=0;entryDy=0;entryPerimeter=0;startArrow=ERmandOne;startFill=0;endArrow=ERmandOne;endFill=0;strokeColor=default;exitPerimeter=0;" parent="1" source="e0jUxMu2YsF5jDYow5DT-1" target="u9joneSlGGYFTYJrx8sh-2" edge="1">
          <mxGeometry relative="1" as="geometry">
            <Array as="points">
              <mxPoint x="-315" y="60" />
              <mxPoint x="-315" y="525" />
              <mxPoint x="680" y="525" />
              <mxPoint x="680" y="245" />
              <mxPoint x="711" y="245" />
            </Array>
            <mxPoint x="-315" y="225" as="sourcePoint" />
          </mxGeometry>
        </mxCell>
        <mxCell id="e0jUxMu2YsF5jDYow5DT-1" value="&lt;b&gt;products&lt;/b&gt;" style="rounded=0;whiteSpace=wrap;html=1;" vertex="1" parent="1">
          <mxGeometry x="-530" y="-50" width="370" height="110" as="geometry" />
        </mxCell>
        <mxCell id="e0jUxMu2YsF5jDYow5DT-3" style="edgeStyle=orthogonalEdgeStyle;rounded=0;orthogonalLoop=1;jettySize=auto;html=1;exitX=1;exitY=0.5;exitDx=0;exitDy=0;" edge="1" parent="1" source="e0jUxMu2YsF5jDYow5DT-2" target="e0jUxMu2YsF5jDYow5DT-1">
          <mxGeometry relative="1" as="geometry" />
        </mxCell>
        <mxCell id="e0jUxMu2YsF5jDYow5DT-2" value="active_&lt;b&gt;discount_product_strategy_type_id&lt;/b&gt;" style="ellipse;whiteSpace=wrap;html=1;" vertex="1" parent="1">
          <mxGeometry x="-1120" y="-90" width="440" height="190" as="geometry" />
        </mxCell>
        <mxCell id="e0jUxMu2YsF5jDYow5DT-4" value="&lt;div style=&quot;text-align: left&quot;&gt;TODO&lt;/div&gt;&lt;div style=&quot;text-align: left&quot;&gt;* when adding a new DISCOUNT PRODUCT STRATEGY to a PRODUCT and the type is &lt;b&gt;PERCENT&lt;/b&gt;&lt;/div&gt;&lt;div style=&quot;text-align: left&quot;&gt;&lt;b&gt;* &lt;/b&gt;do not create a new record, create only a new record with the type id of percent if it is not existing.&lt;/div&gt;&lt;div style=&quot;text-align: left&quot;&gt;* otherwise update the record only&lt;/div&gt;&lt;div style=&quot;text-align: left&quot;&gt;* it should only have one record if its a type of percent&lt;/div&gt;" style="text;html=1;strokeColor=none;fillColor=none;align=center;verticalAlign=middle;whiteSpace=wrap;rounded=0;" vertex="1" parent="1">
          <mxGeometry x="60" y="360" width="600" height="160" as="geometry" />
        </mxCell>
      </root>
    </mxGraphModel>
  </diagram>
</mxfile>
